# xmcd
#
# Track frame offsets:
#	183
#	13170
#	24868
#	35120
#	48698
#	59333
#	70500
#	80733
#	91883
#	105360
#	117560
#	133758
#	145485
#	160180
#	176523
#	189145
#	207013
#	222038
#	234940
#	245723
#	255165
#	267990
#
# Disc length: 3740 seconds
#
# Revision: 0
# Processed by: cddbd v1.5.2PL0 Copyright (c) Steve Scherf et al.
# Submitted via: EZCDAudioConverter 1.1.0.1
#
DISCID=2f0e9a16
DTITLE=Various Arstits - Le Meilleur De La Soul
DYEAR=1994
DGENRE=Soul
TTITLE0=Ben E. King - Spanish Harlem
TTITLE1=The Drifters - Under The Boardwalk
TTITLE2=Louis Armstrong - What A Wonderfull World
TTITLE3=Aaron Neville - Tell It Like It Is
TTITLE4=The Fleetwoods - Come Softly To Me
TTITLE5=Paul and Paula - Hey Paula
TTITLE6=The Marcels - Blue Moon
TTITLE7=Solomon Burke - If You Need Me
TTITLE8=Joe Tex - I've Got To Do A Little Bit Better
TTITLE9=Jerry Butler - He Will Break Your Heart
TTITLE10=Nina Simone - My Baby Just Cares For Me
TTITLE11=The Platters - Only You
TTITLE12=Percy Sledge - Warm And Tender Love
TTITLE13=Ray Charles - Georgia On My Mind
TTITLE14=Dinah Washington - Mad About The Boy
TTITLE15=Brook Benton - A Rainy Night In Georgia
TTITLE16=Bobby Womack - Love, The Time Is Now
TTITLE17=The Dells - Oh What A Night
TTITLE18=Gene Chandler - Duke Of Earl
TTITLE19=Sam Cooke - Wonderfull World
TTITLE20=Mary Wells - My Guy
TTITLE21=Fontella Bass - Rescue Me
EXTD=
EXTT0=
EXTT1=
EXTT2=
EXTT3=
EXTT4=
EXTT5=
EXTT6=
EXTT7=
EXTT8=
EXTT9=
EXTT10=
EXTT11=
EXTT12=
EXTT13=
EXTT14=
EXTT15=
EXTT16=
EXTT17=
EXTT18=
EXTT19=
EXTT20=
EXTT21=
PLAYORDER=
